Coordinates
version=1
nRows=11
nColumns=40
inDegrees=yes

Units are S.I. units (second, meters, Newtons, ...)
Angles are in degrees.

endheader
time	pelvis_tilt	pelvis_list	pelvis_rotation	pelvis_tx	pelvis_ty	pelvis_tz	hip_flexion_r	hip_adduction_r	hip_rotation_r	knee_angle_r	knee_angle_r_beta	ankle_angle_r	subtalar_angle_r	mtp_angle_r	hip_flexion_l	hip_adduction_l	hip_rotation_l	knee_angle_l	knee_angle_l_beta	ankle_angle_l	subtalar_angle_l	mtp_angle_l	lumbar_extension	lumbar_bending	lumbar_rotation	arm_flex_r	arm_add_r	arm_rot_r	elbow_flex_r	pro_sup_r	wrist_flex_r	wrist_dev_r	arm_flex_l	arm_add_l	arm_rot_l	elbow_flex_l	pro_sup_l	wrist_flex_l	wrist_dev_l
      3.42500000	     -3.16662591	     -4.52534669	     -2.61884054	      0.82616522	      0.92480622	      0.45094066	     19.72269110	      2.15187094	    -13.08371936	     18.39868264	     18.39868264	      4.36275095	     -0.17505210	     -5.26572712	      7.21810273	     -9.54117000	     -8.59202834	     39.95456815	     39.95456815	     14.11715834	    -16.85203244	     -3.25158854	     -7.99063955	      6.48546373	      3.75707673	      5.84463781	    -14.61506424	     -2.69753850	     61.23569067	     43.79571075	      0.00000000	      0.00000000	     44.83310771	    -14.95893931	      5.48682063	     99.42669193	     46.70302311	      0.00000000	      0.00000000
      3.43685714	     -3.28440405	     -4.64578125	     -2.08035214	      0.82579777	      0.92533479	      0.45253836	     19.19931646	      2.27696233	    -13.59880879	     18.12728500	     18.12728500	      4.79199963	     -0.01053919	     -5.38584745	      9.30599946	    -10.12914152	     -7.58996359	     43.74646285	     43.74646285	     12.78794926	    -17.53264772	     -2.77229504	     -7.83600831	      6.66700453	      3.42166518	      7.16682282	    -14.67724238	     -2.41929904	     64.21343154	     43.70680331	      0.00000000	      0.00000000	     43.55132910	    -15.00764517	      5.61508488	     98.46377244	     46.69471034	      0.00000000	      0.00000000
      3.44871429	     -3.21187329	     -4.62989135	     -1.64059364	      0.82539102	      0.92604157	      0.45393380	     18.54113340	      2.22545260	    -14.15007605	     17.98241472	     17.98241472	      5.19414188	      0.36996334	     -5.65598609	     11.20154005	    -10.41911032	     -6.59821715	     47.46108093	     47.46108093	     12.30015028	    -17.92081409	     -0.07618112	     -7.99383684	      6.75353520	      3.41672450	      7.78006445	    -15.53467970	     -1.30000565	     70.55050980	     43.50930793	      0.00000000	      0.00000000	     42.22053350	    -14.67137767	      5.68505281	     97.60916111	     46.73245848	      0.00000000	      0.00000000
      3.46057143	     -3.19828926	     -4.75136349	     -1.17846060	      0.82472481	      0.92659183	      0.45524438	     17.90199874	      2.34902567	    -14.66490902	     17.71612916	     17.71612916	      5.49589967	      0.71877936	     -5.97431741	     13.30452022	    -10.77491231	     -5.47716857	     51.18294233	     51.18294233	     12.51020135	    -17.95261609	      4.12954629	     -8.14361321	      6.90897535	      4.00559286	      8.50065138	    -16.48132179	     -0.92218968	     75.15194976	     43.45574531	      0.00000000	      0.00000000	     41.34122592	    -13.81251854	      6.47211529	     96.49267899	     46.76774991	      0.00000000	      0.00000000
      3.47242857	     -3.21927994	     -4.84253212	     -0.74540639	      0.82397146	      0.92706244	      0.45648668	     17.30508930	      2.45074552	    -15.17377033	     17.44107569	     17.44107569	      5.77125185	      1.03670706	     -6.22631181	     15.35987704	    -11.06500078	     -4.51288322	     54.46250268	     54.46250268	     12.44674060	    -18.09714962	      7.28925260	     -8.16905412	      7.05030718	      4.16337554	     10.04513544	    -16.84505761	     -0.99464744	     78.68728668	     43.47947896	      0.00000000	      0.00000000	     40.12418867	    -13.45609222	      7.07562363	     95.24372161	     46.82251451	      0.00000000	      0.00000000
      3.48428571	     -3.26121010	     -4.96331657	     -0.31104213	      0.82315320	      0.92749008	      0.45772728	     16.71100216	      2.61897681	    -15.61764491	     17.10990832	     17.10990832	      6.08004432	      1.25340193	     -6.32203516	     17.30568151	    -11.41352759	     -3.74095252	     57.17112811	     57.17112811	     11.71440748	    -18.36086423	      8.05216685	     -8.13009823	      7.21295188	      3.97445085	     12.24139092	    -16.89569377	     -0.98118111	     81.14998784	     43.43746108	      0.00000000	      0.00000000	     38.64011104	    -13.44727265	      7.47708102	     94.08764705	     46.79624949	      0.00000000	      0.00000000
      3.49614286	     -3.24121312	     -5.03920275	      0.04701702	      0.82226196	      0.92797201	      0.45883283	     16.10855321	      2.71985927	    -16.04641289	     16.88176960	     16.88176960	      6.33430558	      1.58744111	     -6.51921211	     19.17668654	    -11.59960521	     -2.97308753	     59.62231583	     59.62231583	     12.05636275	    -18.44061783	     10.98609987	     -8.29368183	      7.30476804	      4.33387878	     13.88691921	    -17.81263396	     -0.34992473	     85.22551974	     43.39534411	      0.00000000	      0.00000000	     37.29627854	    -12.93004582	      8.03515363	     92.96551570	     46.82277201	      0.00000000	      0.00000000
      3.50800000	     -3.18989375	     -5.06226793	      0.34078569	      0.82136897	      0.92859644	      0.46001276	     15.48049174	      2.82546427	    -16.22137492	     16.64943238	     16.64943238	      6.60856832	      1.65118866	     -6.54064971	     20.78020036	    -11.81285671	     -2.53367052	     61.34591216	     61.34591216	     11.59005076	    -18.63807048	     11.09451497	     -8.38606935	      7.25637951	      4.51633438	     16.50630191	    -17.96146373	     -0.64914399	     86.71740778	     43.37814214	      0.00000000	      0.00000000	     35.69768925	    -12.55612870	      8.59728484	     92.05886313	     46.76862686	      0.00000000	      0.00000000
      3.51985714	     -3.26272562	     -5.16899296	      0.71729366	      0.82036375	      0.92901097	      0.46103069	     14.90144216	      3.00844928	    -16.61748220	     16.24085154	     16.24085154	      6.84834751	      1.90770419	     -6.60903748	     22.61180037	    -11.98574739	     -1.92760416	     62.83225986	     62.83225986	     12.10658927	    -18.68983964	     13.30270395	     -8.42636916	      7.41894998	      4.55772229	     18.46361402	    -18.60891921	      0.14906191	     90.75610713	     43.32967273	      0.00000000	      0.00000000	     34.24628203	    -12.49457791	      9.07921806	     90.24264255	     46.77511914	      0.00000000	      0.00000000
      3.53171429	     -3.26264553	     -5.12248700	      0.99826079	      0.81940480	      0.92967573	      0.46202252	     14.31457886	      3.05273642	    -16.74866719	     15.96906801	     15.96906801	      7.10855025	      1.91194510	     -6.61040874	     24.07125784	    -12.06600870	     -1.68532736	     63.52905432	     63.52905432	     12.00668688	    -18.81935981	     13.35156189	     -8.49981298	      7.28991683	      4.77840446	     21.15621956	    -18.79033179	     -0.20135957	     92.16327088	     43.31639031	      0.00000000	      0.00000000	     32.52686915	    -12.17203386	      9.63954169	     89.25519240	     46.71918283	      0.00000000	      0.00000000
      3.54357143	     -3.30009541	     -5.21123615	      1.36821117	      0.81838732	      0.93024813	      0.46298574	     13.65040065	      3.27805638	    -16.96572417	     15.44349879	     15.44349879	      7.30864358	      1.97463504	     -6.54470342	     25.59614038	    -12.21096133	     -1.30045078	     63.85337854	     63.85337854	     12.15070700	    -18.87571922	     13.75728745	     -8.53775806	      7.36995843	      4.46849553	     23.84480960	    -18.61856261	      0.03158754	     94.72367807	     43.26075307	      0.00000000	      0.00000000	     30.88363947	    -12.44310763	     10.03909438	     87.37291447	     46.66846719	      0.00000000	      0.00000000
